<svg width="131" height="120" viewBox="0 0 131 120" fill="none" xmlns="http://www.w3.org/2000/svg">
<g filter="url(#filter0_f_3_48)">
<path d="M17.9967 81.3454C16.701 81.2974 15.5972 80.8414 14.6853 79.9776C13.7735 79.0658 13.2936 77.962 13.2456 76.6662V58.7414C13.2936 55.334 13.7735 52.1186 14.6853 49.0952C15.6451 46.0717 17.2049 43.5282 19.3645 41.4645C21.5721 39.3529 24.3556 38.2011 27.715 38.0092H55.502C56.7977 38.0572 57.8775 38.5371 58.7414 39.4489C59.6532 40.3127 60.1331 41.3925 60.1811 42.6883C60.1811 44.0321 59.7252 45.1839 58.8134 46.1437C57.9495 47.1035 56.8457 47.6074 55.502 47.6554H30.1625C28.3389 47.7514 26.8271 48.4473 25.6273 49.743C24.4276 51.0388 23.6597 52.5265 23.3238 54.2062C23.0358 55.8379 22.9158 57.6376 22.9638 59.6053V76.6662C22.9158 78.01 22.4119 79.1378 21.4521 80.0496C20.4923 80.9134 19.3405 81.3454 17.9967 81.3454ZM26.3472 62.4128C26.3472 61.069 26.8271 59.9412 27.787 59.0294C28.6988 58.0695 29.8266 57.5896 31.1703 57.5896H55.502C56.8457 57.5896 57.9735 58.0695 58.8854 59.0294C59.8452 59.9412 60.3251 61.069 60.3251 62.4128C60.3251 63.7565 59.8692 64.9083 58.9573 65.8681C57.9975 66.78 56.8457 67.2359 55.502 67.2359H31.1703C29.8266 67.2359 28.6748 66.78 27.715 65.8681C26.8031 64.9083 26.3472 63.7565 26.3472 62.4128Z" fill="white"/>
<path d="M65.5082 42.8323C65.5082 41.4885 65.9641 40.3607 66.8759 39.4489C67.8357 38.4891 68.9875 38.0092 70.3313 38.0092H112.228C113.572 38.0092 114.723 38.4651 115.683 39.3769C116.595 40.3367 117.051 41.4885 117.051 42.8323C117.051 44.176 116.571 45.3278 115.611 46.2877C114.699 47.1995 113.572 47.6554 112.228 47.6554H96.1746V76.8102C95.8867 79.6897 94.303 81.2494 91.4235 81.4893C90.0797 81.4893 88.9039 81.0574 87.8961 80.1936C86.9363 79.2817 86.4564 78.1539 86.4564 76.8102V47.6554H70.3313C68.9875 47.6554 67.8597 47.1755 66.9479 46.2157C65.9881 45.3038 65.5082 44.176 65.5082 42.8323Z" fill="#ECA5B2"/>
</g>
<path d="M17.9967 81.3454C16.701 81.2974 15.5972 80.8414 14.6853 79.9776C13.7735 79.0658 13.2936 77.962 13.2456 76.6662V58.7414C13.2936 55.334 13.7735 52.1186 14.6853 49.0952C15.6451 46.0717 17.2049 43.5282 19.3645 41.4645C21.5721 39.3529 24.3556 38.2011 27.715 38.0092H55.502C56.7977 38.0572 57.8775 38.5371 58.7414 39.4489C59.6532 40.3127 60.1331 41.3925 60.1811 42.6883C60.1811 44.0321 59.7252 45.1839 58.8134 46.1437C57.9495 47.1035 56.8457 47.6074 55.502 47.6554H30.1625C28.3389 47.7514 26.8271 48.4473 25.6273 49.743C24.4276 51.0388 23.6597 52.5265 23.3238 54.2062C23.0358 55.8379 22.9158 57.6376 22.9638 59.6053V76.6662C22.9158 78.01 22.4119 79.1378 21.4521 80.0496C20.4923 80.9134 19.3405 81.3454 17.9967 81.3454ZM26.3472 62.4128C26.3472 61.069 26.8271 59.9412 27.787 59.0294C28.6988 58.0695 29.8266 57.5896 31.1703 57.5896H55.502C56.8457 57.5896 57.9735 58.0695 58.8854 59.0294C59.8452 59.9412 60.3251 61.069 60.3251 62.4128C60.3251 63.7565 59.8692 64.9083 58.9573 65.8681C57.9975 66.78 56.8457 67.2359 55.502 67.2359H31.1703C29.8266 67.2359 28.6748 66.78 27.715 65.8681C26.8031 64.9083 26.3472 63.7565 26.3472 62.4128Z" fill="white"/>
<path d="M65.5082 42.8323C65.5082 41.4885 65.9641 40.3607 66.8759 39.4489C67.8357 38.4891 68.9875 38.0092 70.3313 38.0092H112.228C113.572 38.0092 114.723 38.4651 115.683 39.3769C116.595 40.3367 117.051 41.4885 117.051 42.8323C117.051 44.176 116.571 45.3278 115.611 46.2877C114.699 47.1995 113.572 47.6554 112.228 47.6554H96.1746V76.8102C95.8867 79.6897 94.303 81.2494 91.4235 81.4893C90.0797 81.4893 88.9039 81.0574 87.8961 80.1936C86.9363 79.2817 86.4564 78.1539 86.4564 76.8102V47.6554H70.3313C68.9875 47.6554 67.8597 47.1755 66.9479 46.2157C65.9881 45.3038 65.5082 44.176 65.5082 42.8323Z" fill="#ECA5B2"/>
<defs>
<filter id="filter0_f_3_48" x="3.44557" y="28.2092" width="123.405" height="63.0802" filterUnits="userSpaceOnUse" color-interpolation-filters="sRGB">
<feFlood flood-opacity="0" result="BackgroundImageFix"/>
<feBlend mode="normal" in="SourceGraphic" in2="BackgroundImageFix" result="shape"/>
<feGaussianBlur stdDeviation="4.9" result="effect1_foregroundBlur_3_48"/>
</filter>
</defs>
</svg>
