<svg width="288" height="64" viewBox="0 0 288 64" fill="none" xmlns="http://www.w3.org/2000/svg">
<g filter="url(#filter0_d_445_531)">
<path d="M10.4453 46.3906C9.74219 46.3646 9.14323 46.1172 8.64844 45.6484C8.15365 45.1536 7.89323 44.5547 7.86719 43.8516V34.125C7.89323 32.276 8.15365 30.5312 8.64844 28.8906C9.16927 27.25 10.0156 25.8698 11.1875 24.75C12.3854 23.6042 13.8958 22.9792 15.7188 22.875H30.7969C31.5 22.901 32.0859 23.1615 32.5547 23.6562C33.0495 24.125 33.3099 24.7109 33.3359 25.4141C33.3359 26.1432 33.0885 26.7682 32.5938 27.2891C32.125 27.8099 31.526 28.0833 30.7969 28.1094H17.0469C16.0573 28.1615 15.237 28.5391 14.5859 29.2422C13.9349 29.9453 13.5182 30.7526 13.3359 31.6641C13.1797 32.5495 13.1146 33.526 13.1406 34.5938V43.8516C13.1146 44.5807 12.8411 45.1927 12.3203 45.6875C11.7995 46.1562 11.1745 46.3906 10.4453 46.3906ZM14.9766 36.1172C14.9766 35.388 15.237 34.776 15.7578 34.2812C16.2526 33.7604 16.8646 33.5 17.5938 33.5H30.7969C31.526 33.5 32.138 33.7604 32.6328 34.2812C33.1536 34.776 33.4141 35.388 33.4141 36.1172C33.4141 36.8464 33.1667 37.4714 32.6719 37.9922C32.151 38.487 31.526 38.7344 30.7969 38.7344H17.5938C16.8646 38.7344 16.2396 38.487 15.7188 37.9922C15.224 37.4714 14.9766 36.8464 14.9766 36.1172ZM42.2422 43.9297C42.0859 45.4922 41.2266 46.3385 39.6641 46.4688C38.9349 46.4688 38.2969 46.2344 37.75 45.7656C37.2292 45.2708 36.9688 44.6589 36.9688 43.9297V25.4141C36.9948 24.6849 37.2682 24.0859 37.7891 23.6172C38.3099 23.1224 38.9349 22.875 39.6641 22.875H41.5781H46.3828H56.0312C56.1875 22.875 56.3438 22.888 56.5 22.9141H56.7344C58.5573 22.9661 60.0547 23.3828 61.2266 24.1641C62.3984 24.9453 63.2448 25.8438 63.7656 26.8594C64.2865 27.849 64.5469 28.8516 64.5469 29.8672C64.5469 30.9089 64.2865 31.9375 63.7656 32.9531C63.2708 33.9427 62.4245 34.8281 61.2266 35.6094C60.0547 36.3906 58.5573 36.8073 56.7344 36.8594H49.8594C50.0677 38.1615 50.4974 39.125 51.1484 39.75C51.7734 40.375 52.5677 40.6875 53.5312 40.6875H61.9688C62.6979 40.7135 63.2969 40.987 63.7656 41.5078C64.2604 42.0286 64.5078 42.6536 64.5078 43.3828C64.4818 44.0859 64.2214 44.6849 63.7266 45.1797C63.2578 45.6484 62.6719 45.8958 61.9688 45.9219H52.8281C50.901 45.9479 49.1562 45.1927 47.5938 43.6562C46.0312 42.1198 45.0807 40.2969 44.7422 38.1875C44.2734 35.8438 44.0391 34.5286 44.0391 34.2422C44.0391 33.513 44.2865 32.901 44.7812 32.4062C45.3021 31.8854 45.9271 31.625 46.6562 31.625H56.9688C57.4635 31.599 57.8672 31.4948 58.1797 31.3125C58.5182 31.1042 58.7656 30.8828 58.9219 30.6484C59.0781 30.388 59.1562 30.1276 59.1562 29.8672C59.1562 29.6068 59.0781 29.3594 58.9219 29.125C58.7656 28.8646 58.5182 28.6432 58.1797 28.4609C57.8672 28.2526 57.4635 28.1354 56.9688 28.1094H46.3828H43.2578C42.5807 28.1354 42.2422 28.474 42.2422 29.125V43.9297ZM89.7422 22.875C91.0703 22.901 92.2552 23.3177 93.2969 24.125C94.3385 24.9323 95.1719 25.8958 95.7969 27.0156C96.4479 28.1354 96.9297 29.3203 97.2422 30.5703C97.5547 31.8203 97.7109 33.0964 97.7109 34.3984C97.7109 36.1172 97.4375 37.8099 96.8906 39.4766C96.3698 41.1172 95.4974 42.5755 94.2734 43.8516C93.0755 45.1276 91.5651 45.8177 89.7422 45.9219H76.1094C74.2865 45.8438 72.763 45.1667 71.5391 43.8906C70.3151 42.6146 69.4427 41.1432 68.9219 39.4766C68.4271 37.8099 68.1797 36.1172 68.1797 34.3984C68.1797 32.6797 68.4401 31 68.9609 29.3594C69.4818 27.6927 70.3411 26.2214 71.5391 24.9453C72.763 23.6432 74.2865 22.9531 76.1094 22.875H76.8516H89H89.7422ZM88.4141 40.6875C89.4036 40.6354 90.224 40.2708 90.875 39.5938C91.5521 38.8906 92.0339 38.0833 92.3203 37.1719C92.6068 36.2604 92.75 35.3359 92.75 34.3984C92.75 33.4609 92.5938 32.5495 92.2812 31.6641C91.9948 30.7526 91.526 29.9453 90.875 29.2422C90.224 28.5391 89.4036 28.1615 88.4141 28.1094H77.3203C76.3307 28.1615 75.5104 28.5391 74.8594 29.2422C74.2083 29.9453 73.7266 30.7526 73.4141 31.6641C73.1276 32.5495 72.9844 33.4609 72.9844 34.3984C72.9844 35.3359 73.1276 36.2604 73.4141 37.1719C73.7005 38.0833 74.1693 38.8906 74.8203 39.5938C75.4974 40.2708 76.3307 40.6354 77.3203 40.6875H88.4141ZM114.43 21.8203C115.784 21.8203 117.112 21.9766 118.414 22.2891C119.742 22.6016 121.005 23.0703 122.203 23.6953C123.401 24.2943 124.456 25.1016 125.367 26.1172C126.305 27.1328 126.812 28.3438 126.891 29.75V31.3906V43.8516C126.734 45.4141 125.875 46.2604 124.312 46.3906C123.583 46.3906 122.945 46.1562 122.398 45.6875C121.878 45.1927 121.617 44.5807 121.617 43.8516V30.9609C121.565 30.1536 121.253 29.4896 120.68 28.9688C120.133 28.4219 119.508 27.9922 118.805 27.6797C118.128 27.3672 117.411 27.1328 116.656 26.9766C115.927 26.8203 115.185 26.7422 114.43 26.7422C113.674 26.7422 112.919 26.8203 112.164 26.9766C111.435 27.1328 110.719 27.3672 110.016 27.6797C109.339 27.9922 108.714 28.4219 108.141 28.9688C107.594 29.4896 107.294 30.1536 107.242 30.9609V43.8516C107.112 45.4141 106.266 46.2604 104.703 46.3906C103.974 46.3906 103.336 46.1562 102.789 45.6875C102.268 45.1927 102.008 44.5807 102.008 43.8516V31.3906V29.75C102.086 28.3438 102.581 27.1328 103.492 26.1172C104.404 25.1016 105.458 24.2943 106.656 23.6953C107.854 23.0703 109.104 22.6016 110.406 22.2891C111.734 21.9766 113.076 21.8203 114.43 21.8203ZM131.07 25.4922C131.07 24.763 131.318 24.151 131.812 23.6562C132.333 23.1354 132.958 22.875 133.688 22.875H156.422C157.151 22.875 157.776 23.1224 158.297 23.6172C158.792 24.138 159.039 24.763 159.039 25.4922C159.039 26.2214 158.779 26.8464 158.258 27.3672C157.763 27.862 157.151 28.1094 156.422 28.1094H147.711V43.9297C147.555 45.4922 146.695 46.3385 145.133 46.4688C144.404 46.4688 143.766 46.2344 143.219 45.7656C142.698 45.2708 142.438 44.6589 142.438 43.9297V28.1094H133.688C132.958 28.1094 132.346 27.849 131.852 27.3281C131.331 26.8333 131.07 26.2214 131.07 25.4922Z" fill="white"/>
<path d="M162.398 25.4922C162.398 24.763 162.646 24.151 163.141 23.6562C163.661 23.1354 164.286 22.875 165.016 22.875H187.75C188.479 22.875 189.104 23.1224 189.625 23.6172C190.12 24.138 190.367 24.763 190.367 25.4922C190.367 26.2214 190.107 26.8464 189.586 27.3672C189.091 27.862 188.479 28.1094 187.75 28.1094H179.039V43.9297C178.883 45.4922 178.023 46.3385 176.461 46.4688C175.732 46.4688 175.094 46.2344 174.547 45.7656C174.026 45.2708 173.766 44.6589 173.766 43.9297V28.1094H165.016C164.286 28.1094 163.674 27.849 163.18 27.3281C162.659 26.8333 162.398 26.2214 162.398 25.4922ZM201.734 22.875H203.531H216.812C217.542 22.901 218.141 23.1745 218.609 23.6953C219.104 24.2161 219.352 24.8411 219.352 25.5703C219.221 27.1328 218.375 27.9792 216.812 28.1094H203.062C202.073 28.1615 201.253 28.5391 200.602 29.2422C199.951 29.9453 199.469 30.7526 199.156 31.6641C198.87 32.5495 198.727 33.4609 198.727 34.3984C198.727 35.3359 198.87 36.2604 199.156 37.1719C199.469 38.0573 199.951 38.8516 200.602 39.5547C201.253 40.2578 202.073 40.6354 203.062 40.6875H216.812C217.542 40.7135 218.141 40.987 218.609 41.5078C219.104 42.0286 219.352 42.6536 219.352 43.3828C219.326 44.0859 219.065 44.6849 218.57 45.1797C218.102 45.6484 217.516 45.8958 216.812 45.9219H202.477H201.734C199.911 45.8177 198.401 45.1276 197.203 43.8516C196.031 42.5495 195.185 41.0781 194.664 39.4375C194.169 37.7969 193.922 36.1172 193.922 34.3984C193.922 32.6797 194.182 31 194.703 29.3594C195.224 27.7188 196.07 26.2604 197.242 24.9844C198.414 23.6823 199.911 22.9792 201.734 22.875ZM219.273 34.2422C219.273 34.9714 219.013 35.5833 218.492 36.0781C217.997 36.599 217.385 36.8594 216.656 36.8594H204.859C204.13 36.8594 203.505 36.612 202.984 36.1172C202.49 35.5964 202.242 34.9714 202.242 34.2422C202.242 33.513 202.49 32.888 202.984 32.3672C203.505 31.8724 204.13 31.625 204.859 31.625H216.656C217.385 31.625 217.997 31.8854 218.492 32.4062C219.013 32.901 219.273 33.513 219.273 34.2422ZM232.047 39.8672C232.047 39.138 232.294 38.526 232.789 38.0312C233.31 37.5104 233.935 37.25 234.664 37.25H240.641L239.625 34.3594C239.208 33.2917 238.792 32.2891 238.375 31.3516C237.984 30.388 237.529 29.5156 237.008 28.7344C236.539 27.9531 236.005 27.5365 235.406 27.4844C234.781 27.5365 234.221 27.9531 233.727 28.7344C233.232 29.5156 232.776 30.388 232.359 31.3516C231.969 32.2891 231.565 33.2917 231.148 34.3594L227.438 44.5156C227.177 45.0625 226.839 45.5182 226.422 45.8828C226.031 46.2214 225.432 46.3906 224.625 46.3906C223.87 46.3906 223.245 46.1302 222.75 45.6094C222.281 45.0885 222.073 44.4635 222.125 43.7344C222.151 43.3958 222.229 43.0833 222.359 42.7969L226.656 31.7031C227.854 28.7865 229.052 26.4297 230.25 24.6328C231.422 22.862 233.141 21.9635 235.406 21.9375C237.646 21.9635 239.352 22.862 240.523 24.6328C241.721 26.3776 242.919 28.7344 244.117 31.7031L248.414 42.7969C248.544 43.0833 248.622 43.3958 248.648 43.7344C248.701 44.4635 248.479 45.0885 247.984 45.6094C247.516 46.1302 246.904 46.3906 246.148 46.3906C245.289 46.3906 244.651 46.2214 244.234 45.8828C243.844 45.5182 243.518 45.0625 243.258 44.5156L242.516 42.4844H234.664C233.935 42.4844 233.323 42.224 232.828 41.7031C232.307 41.2083 232.047 40.5964 232.047 39.8672ZM260.836 21.8203C261.747 21.8203 262.633 21.9766 263.492 22.2891C264.378 22.6016 265.224 23.0573 266.031 23.6562C266.161 23.7865 266.305 23.9167 266.461 24.0469C266.591 23.9167 266.734 23.7865 266.891 23.6562C267.698 23.0573 268.531 22.6016 269.391 22.2891C270.276 21.9766 271.161 21.8203 272.047 21.8203C272.958 21.8203 273.844 21.9766 274.703 22.2891C275.589 22.6016 276.422 23.0703 277.203 23.6953C278.01 24.2943 278.714 25.1016 279.312 26.1172C279.938 27.1328 280.25 28.3438 280.25 29.75V43.8516C280.094 45.4141 279.234 46.2604 277.672 46.3906C276.943 46.3906 276.305 46.1562 275.758 45.6875C275.237 45.1927 274.977 44.5807 274.977 43.8516V30.0625C274.977 29.4375 274.859 28.9167 274.625 28.5C274.391 28.0573 274.13 27.7188 273.844 27.4844C273.557 27.224 273.258 27.0417 272.945 26.9375C272.633 26.8073 272.32 26.7422 272.008 26.7422C271.695 26.7422 271.383 26.8073 271.07 26.9375C270.784 27.0417 270.497 27.224 270.211 27.4844C269.924 27.7188 269.664 28.0573 269.43 28.5C269.195 28.9167 269.065 29.4375 269.039 30.0625V43.8516C268.883 45.4141 268.023 46.2604 266.461 46.3906C265.732 46.3906 265.094 46.1562 264.547 45.6875C264.026 45.1927 263.766 44.5807 263.766 43.8516V30.0625C263.766 29.4375 263.648 28.9167 263.414 28.5C263.18 28.0573 262.919 27.7188 262.633 27.4844C262.346 27.224 262.047 27.0417 261.734 26.9375C261.422 26.8073 261.109 26.7422 260.797 26.7422C260.484 26.7422 260.172 26.8073 259.859 26.9375C259.573 27.0417 259.286 27.224 259 27.4844C258.714 27.7188 258.453 28.0573 258.219 28.5C257.984 28.9167 257.854 29.4375 257.828 30.0625V43.8516C257.698 45.4141 256.852 46.2604 255.289 46.3906C254.56 46.3906 253.922 46.1562 253.375 45.6875C252.854 45.1927 252.594 44.5807 252.594 43.8516V29.75C252.646 28.3438 252.971 27.1328 253.57 26.1172C254.169 25.1016 254.872 24.2943 255.68 23.6953C256.487 23.0703 257.32 22.6016 258.18 22.2891C259.065 21.9766 259.951 21.8203 260.836 21.8203Z" fill="#ECA5B2"/>
</g>
<g filter="url(#filter1_f_445_531)">
<path d="M10.4453 46.3906C9.74219 46.3646 9.14323 46.1172 8.64844 45.6484C8.15365 45.1536 7.89323 44.5547 7.86719 43.8516V34.125C7.89323 32.276 8.15365 30.5312 8.64844 28.8906C9.16927 27.25 10.0156 25.8698 11.1875 24.75C12.3854 23.6042 13.8958 22.9792 15.7188 22.875H30.7969C31.5 22.901 32.0859 23.1615 32.5547 23.6562C33.0495 24.125 33.3099 24.7109 33.3359 25.4141C33.3359 26.1432 33.0885 26.7682 32.5938 27.2891C32.125 27.8099 31.526 28.0833 30.7969 28.1094H17.0469C16.0573 28.1615 15.237 28.5391 14.5859 29.2422C13.9349 29.9453 13.5182 30.7526 13.3359 31.6641C13.1797 32.5495 13.1146 33.526 13.1406 34.5938V43.8516C13.1146 44.5807 12.8411 45.1927 12.3203 45.6875C11.7995 46.1562 11.1745 46.3906 10.4453 46.3906ZM14.9766 36.1172C14.9766 35.388 15.237 34.776 15.7578 34.2812C16.2526 33.7604 16.8646 33.5 17.5938 33.5H30.7969C31.526 33.5 32.138 33.7604 32.6328 34.2812C33.1536 34.776 33.4141 35.388 33.4141 36.1172C33.4141 36.8464 33.1667 37.4714 32.6719 37.9922C32.151 38.487 31.526 38.7344 30.7969 38.7344H17.5938C16.8646 38.7344 16.2396 38.487 15.7188 37.9922C15.224 37.4714 14.9766 36.8464 14.9766 36.1172ZM42.2422 43.9297C42.0859 45.4922 41.2266 46.3385 39.6641 46.4688C38.9349 46.4688 38.2969 46.2344 37.75 45.7656C37.2292 45.2708 36.9688 44.6589 36.9688 43.9297V25.4141C36.9948 24.6849 37.2682 24.0859 37.7891 23.6172C38.3099 23.1224 38.9349 22.875 39.6641 22.875H41.5781H46.3828H56.0312C56.1875 22.875 56.3438 22.888 56.5 22.9141H56.7344C58.5573 22.9661 60.0547 23.3828 61.2266 24.1641C62.3984 24.9453 63.2448 25.8438 63.7656 26.8594C64.2865 27.849 64.5469 28.8516 64.5469 29.8672C64.5469 30.9089 64.2865 31.9375 63.7656 32.9531C63.2708 33.9427 62.4245 34.8281 61.2266 35.6094C60.0547 36.3906 58.5573 36.8073 56.7344 36.8594H49.8594C50.0677 38.1615 50.4974 39.125 51.1484 39.75C51.7734 40.375 52.5677 40.6875 53.5312 40.6875H61.9688C62.6979 40.7135 63.2969 40.987 63.7656 41.5078C64.2604 42.0286 64.5078 42.6536 64.5078 43.3828C64.4818 44.0859 64.2214 44.6849 63.7266 45.1797C63.2578 45.6484 62.6719 45.8958 61.9688 45.9219H52.8281C50.901 45.9479 49.1562 45.1927 47.5938 43.6562C46.0312 42.1198 45.0807 40.2969 44.7422 38.1875C44.2734 35.8438 44.0391 34.5286 44.0391 34.2422C44.0391 33.513 44.2865 32.901 44.7812 32.4062C45.3021 31.8854 45.9271 31.625 46.6562 31.625H56.9688C57.4635 31.599 57.8672 31.4948 58.1797 31.3125C58.5182 31.1042 58.7656 30.8828 58.9219 30.6484C59.0781 30.388 59.1562 30.1276 59.1562 29.8672C59.1562 29.6068 59.0781 29.3594 58.9219 29.125C58.7656 28.8646 58.5182 28.6432 58.1797 28.4609C57.8672 28.2526 57.4635 28.1354 56.9688 28.1094H46.3828H43.2578C42.5807 28.1354 42.2422 28.474 42.2422 29.125V43.9297ZM89.7422 22.875C91.0703 22.901 92.2552 23.3177 93.2969 24.125C94.3385 24.9323 95.1719 25.8958 95.7969 27.0156C96.4479 28.1354 96.9297 29.3203 97.2422 30.5703C97.5547 31.8203 97.7109 33.0964 97.7109 34.3984C97.7109 36.1172 97.4375 37.8099 96.8906 39.4766C96.3698 41.1172 95.4974 42.5755 94.2734 43.8516C93.0755 45.1276 91.5651 45.8177 89.7422 45.9219H76.1094C74.2865 45.8438 72.763 45.1667 71.5391 43.8906C70.3151 42.6146 69.4427 41.1432 68.9219 39.4766C68.4271 37.8099 68.1797 36.1172 68.1797 34.3984C68.1797 32.6797 68.4401 31 68.9609 29.3594C69.4818 27.6927 70.3411 26.2214 71.5391 24.9453C72.763 23.6432 74.2865 22.9531 76.1094 22.875H76.8516H89H89.7422ZM88.4141 40.6875C89.4036 40.6354 90.224 40.2708 90.875 39.5938C91.5521 38.8906 92.0339 38.0833 92.3203 37.1719C92.6068 36.2604 92.75 35.3359 92.75 34.3984C92.75 33.4609 92.5938 32.5495 92.2812 31.6641C91.9948 30.7526 91.526 29.9453 90.875 29.2422C90.224 28.5391 89.4036 28.1615 88.4141 28.1094H77.3203C76.3307 28.1615 75.5104 28.5391 74.8594 29.2422C74.2083 29.9453 73.7266 30.7526 73.4141 31.6641C73.1276 32.5495 72.9844 33.4609 72.9844 34.3984C72.9844 35.3359 73.1276 36.2604 73.4141 37.1719C73.7005 38.0833 74.1693 38.8906 74.8203 39.5938C75.4974 40.2708 76.3307 40.6354 77.3203 40.6875H88.4141ZM114.43 21.8203C115.784 21.8203 117.112 21.9766 118.414 22.2891C119.742 22.6016 121.005 23.0703 122.203 23.6953C123.401 24.2943 124.456 25.1016 125.367 26.1172C126.305 27.1328 126.812 28.3438 126.891 29.75V31.3906V43.8516C126.734 45.4141 125.875 46.2604 124.312 46.3906C123.583 46.3906 122.945 46.1562 122.398 45.6875C121.878 45.1927 121.617 44.5807 121.617 43.8516V30.9609C121.565 30.1536 121.253 29.4896 120.68 28.9688C120.133 28.4219 119.508 27.9922 118.805 27.6797C118.128 27.3672 117.411 27.1328 116.656 26.9766C115.927 26.8203 115.185 26.7422 114.43 26.7422C113.674 26.7422 112.919 26.8203 112.164 26.9766C111.435 27.1328 110.719 27.3672 110.016 27.6797C109.339 27.9922 108.714 28.4219 108.141 28.9688C107.594 29.4896 107.294 30.1536 107.242 30.9609V43.8516C107.112 45.4141 106.266 46.2604 104.703 46.3906C103.974 46.3906 103.336 46.1562 102.789 45.6875C102.268 45.1927 102.008 44.5807 102.008 43.8516V31.3906V29.75C102.086 28.3438 102.581 27.1328 103.492 26.1172C104.404 25.1016 105.458 24.2943 106.656 23.6953C107.854 23.0703 109.104 22.6016 110.406 22.2891C111.734 21.9766 113.076 21.8203 114.43 21.8203ZM131.07 25.4922C131.07 24.763 131.318 24.151 131.812 23.6562C132.333 23.1354 132.958 22.875 133.688 22.875H156.422C157.151 22.875 157.776 23.1224 158.297 23.6172C158.792 24.138 159.039 24.763 159.039 25.4922C159.039 26.2214 158.779 26.8464 158.258 27.3672C157.763 27.862 157.151 28.1094 156.422 28.1094H147.711V43.9297C147.555 45.4922 146.695 46.3385 145.133 46.4688C144.404 46.4688 143.766 46.2344 143.219 45.7656C142.698 45.2708 142.438 44.6589 142.438 43.9297V28.1094H133.688C132.958 28.1094 132.346 27.849 131.852 27.3281C131.331 26.8333 131.07 26.2214 131.07 25.4922Z" fill="white"/>
<path d="M162.398 25.4922C162.398 24.763 162.646 24.151 163.141 23.6562C163.661 23.1354 164.286 22.875 165.016 22.875H187.75C188.479 22.875 189.104 23.1224 189.625 23.6172C190.12 24.138 190.367 24.763 190.367 25.4922C190.367 26.2214 190.107 26.8464 189.586 27.3672C189.091 27.862 188.479 28.1094 187.75 28.1094H179.039V43.9297C178.883 45.4922 178.023 46.3385 176.461 46.4688C175.732 46.4688 175.094 46.2344 174.547 45.7656C174.026 45.2708 173.766 44.6589 173.766 43.9297V28.1094H165.016C164.286 28.1094 163.674 27.849 163.18 27.3281C162.659 26.8333 162.398 26.2214 162.398 25.4922ZM201.734 22.875H203.531H216.812C217.542 22.901 218.141 23.1745 218.609 23.6953C219.104 24.2161 219.352 24.8411 219.352 25.5703C219.221 27.1328 218.375 27.9792 216.812 28.1094H203.062C202.073 28.1615 201.253 28.5391 200.602 29.2422C199.951 29.9453 199.469 30.7526 199.156 31.6641C198.87 32.5495 198.727 33.4609 198.727 34.3984C198.727 35.3359 198.87 36.2604 199.156 37.1719C199.469 38.0573 199.951 38.8516 200.602 39.5547C201.253 40.2578 202.073 40.6354 203.062 40.6875H216.812C217.542 40.7135 218.141 40.987 218.609 41.5078C219.104 42.0286 219.352 42.6536 219.352 43.3828C219.326 44.0859 219.065 44.6849 218.57 45.1797C218.102 45.6484 217.516 45.8958 216.812 45.9219H202.477H201.734C199.911 45.8177 198.401 45.1276 197.203 43.8516C196.031 42.5495 195.185 41.0781 194.664 39.4375C194.169 37.7969 193.922 36.1172 193.922 34.3984C193.922 32.6797 194.182 31 194.703 29.3594C195.224 27.7188 196.07 26.2604 197.242 24.9844C198.414 23.6823 199.911 22.9792 201.734 22.875ZM219.273 34.2422C219.273 34.9714 219.013 35.5833 218.492 36.0781C217.997 36.599 217.385 36.8594 216.656 36.8594H204.859C204.13 36.8594 203.505 36.612 202.984 36.1172C202.49 35.5964 202.242 34.9714 202.242 34.2422C202.242 33.513 202.49 32.888 202.984 32.3672C203.505 31.8724 204.13 31.625 204.859 31.625H216.656C217.385 31.625 217.997 31.8854 218.492 32.4062C219.013 32.901 219.273 33.513 219.273 34.2422ZM232.047 39.8672C232.047 39.138 232.294 38.526 232.789 38.0312C233.31 37.5104 233.935 37.25 234.664 37.25H240.641L239.625 34.3594C239.208 33.2917 238.792 32.2891 238.375 31.3516C237.984 30.388 237.529 29.5156 237.008 28.7344C236.539 27.9531 236.005 27.5365 235.406 27.4844C234.781 27.5365 234.221 27.9531 233.727 28.7344C233.232 29.5156 232.776 30.388 232.359 31.3516C231.969 32.2891 231.565 33.2917 231.148 34.3594L227.438 44.5156C227.177 45.0625 226.839 45.5182 226.422 45.8828C226.031 46.2214 225.432 46.3906 224.625 46.3906C223.87 46.3906 223.245 46.1302 222.75 45.6094C222.281 45.0885 222.073 44.4635 222.125 43.7344C222.151 43.3958 222.229 43.0833 222.359 42.7969L226.656 31.7031C227.854 28.7865 229.052 26.4297 230.25 24.6328C231.422 22.862 233.141 21.9635 235.406 21.9375C237.646 21.9635 239.352 22.862 240.523 24.6328C241.721 26.3776 242.919 28.7344 244.117 31.7031L248.414 42.7969C248.544 43.0833 248.622 43.3958 248.648 43.7344C248.701 44.4635 248.479 45.0885 247.984 45.6094C247.516 46.1302 246.904 46.3906 246.148 46.3906C245.289 46.3906 244.651 46.2214 244.234 45.8828C243.844 45.5182 243.518 45.0625 243.258 44.5156L242.516 42.4844H234.664C233.935 42.4844 233.323 42.224 232.828 41.7031C232.307 41.2083 232.047 40.5964 232.047 39.8672ZM260.836 21.8203C261.747 21.8203 262.633 21.9766 263.492 22.2891C264.378 22.6016 265.224 23.0573 266.031 23.6562C266.161 23.7865 266.305 23.9167 266.461 24.0469C266.591 23.9167 266.734 23.7865 266.891 23.6562C267.698 23.0573 268.531 22.6016 269.391 22.2891C270.276 21.9766 271.161 21.8203 272.047 21.8203C272.958 21.8203 273.844 21.9766 274.703 22.2891C275.589 22.6016 276.422 23.0703 277.203 23.6953C278.01 24.2943 278.714 25.1016 279.312 26.1172C279.938 27.1328 280.25 28.3438 280.25 29.75V43.8516C280.094 45.4141 279.234 46.2604 277.672 46.3906C276.943 46.3906 276.305 46.1562 275.758 45.6875C275.237 45.1927 274.977 44.5807 274.977 43.8516V30.0625C274.977 29.4375 274.859 28.9167 274.625 28.5C274.391 28.0573 274.13 27.7188 273.844 27.4844C273.557 27.224 273.258 27.0417 272.945 26.9375C272.633 26.8073 272.32 26.7422 272.008 26.7422C271.695 26.7422 271.383 26.8073 271.07 26.9375C270.784 27.0417 270.497 27.224 270.211 27.4844C269.924 27.7188 269.664 28.0573 269.43 28.5C269.195 28.9167 269.065 29.4375 269.039 30.0625V43.8516C268.883 45.4141 268.023 46.2604 266.461 46.3906C265.732 46.3906 265.094 46.1562 264.547 45.6875C264.026 45.1927 263.766 44.5807 263.766 43.8516V30.0625C263.766 29.4375 263.648 28.9167 263.414 28.5C263.18 28.0573 262.919 27.7188 262.633 27.4844C262.346 27.224 262.047 27.0417 261.734 26.9375C261.422 26.8073 261.109 26.7422 260.797 26.7422C260.484 26.7422 260.172 26.8073 259.859 26.9375C259.573 27.0417 259.286 27.224 259 27.4844C258.714 27.7188 258.453 28.0573 258.219 28.5C257.984 28.9167 257.854 29.4375 257.828 30.0625V43.8516C257.698 45.4141 256.852 46.2604 255.289 46.3906C254.56 46.3906 253.922 46.1562 253.375 45.6875C252.854 45.1927 252.594 44.5807 252.594 43.8516V29.75C252.646 28.3438 252.971 27.1328 253.57 26.1172C254.169 25.1016 254.872 24.2943 255.68 23.6953C256.487 23.0703 257.32 22.6016 258.18 22.2891C259.065 21.9766 259.951 21.8203 260.836 21.8203Z" fill="#ECA5B2"/>
</g>
<defs>
<filter id="filter0_d_445_531" x="3.86719" y="21.8203" width="280.383" height="32.6484" filterUnits="userSpaceOnUse" color-interpolation-filters="sRGB">
<feFlood flood-opacity="0" result="BackgroundImageFix"/>
<feColorMatrix in="SourceAlpha" type="matrix" values="0 0 0 0 0 0 0 0 0 0 0 0 0 0 0 0 0 0 127 0" result="hardAlpha"/>
<feOffset dy="4"/>
<feGaussianBlur stdDeviation="2"/>
<feComposite in2="hardAlpha" operator="out"/>
<feColorMatrix type="matrix" values="0 0 0 0 0 0 0 0 0 0 0 0 0 0 0 0 0 0 0.25 0"/>
<feBlend mode="normal" in2="BackgroundImageFix" result="effect1_dropShadow_445_531"/>
<feBlend mode="normal" in="SourceGraphic" in2="effect1_dropShadow_445_531" result="shape"/>
</filter>
<filter id="filter1_f_445_531" x="0.467187" y="14.4203" width="287.183" height="39.4484" filterUnits="userSpaceOnUse" color-interpolation-filters="sRGB">
<feFlood flood-opacity="0" result="BackgroundImageFix"/>
<feBlend mode="normal" in="SourceGraphic" in2="BackgroundImageFix" result="shape"/>
<feGaussianBlur stdDeviation="3.7" result="effect1_foregroundBlur_445_531"/>
</filter>
</defs>
</svg>
