<svg width="71" height="70" viewBox="0 0 71 70" fill="none" xmlns="http://www.w3.org/2000/svg">
<path d="M26.625 68.151V62.0891C16.7915 64.2413 14.697 57.2827 14.697 57.2827C13.064 53.1219 10.7565 52.01 10.7565 52.01C7.526 49.7861 11.005 49.8578 11.005 49.8578C14.555 50.1089 16.4365 53.5523 16.4365 53.5523C19.525 59.0044 24.7435 57.3903 26.767 56.5295C27.0865 54.198 28.0095 52.6197 29.0035 51.723C21.1225 50.8263 12.851 47.7416 12.851 34.0755C12.851 30.094 14.2 26.9017 16.5075 24.355C16.1525 23.4583 14.91 19.7279 16.8625 14.8856C16.8625 14.8856 19.8445 13.9171 26.625 18.5442C29.4295 17.7551 32.4825 17.3606 35.5 17.3606C38.5175 17.3606 41.5705 17.7551 44.375 18.5442C51.1555 13.9171 54.1375 14.8856 54.1375 14.8856C56.09 19.7279 54.8475 23.4583 54.4925 24.355C56.8 26.9017 58.149 30.094 58.149 34.0755C58.149 47.7774 49.842 50.7904 41.9255 51.6871C43.2035 52.7991 44.375 54.9871 44.375 58.3229V68.151V69.9444H52C62.4934 69.9444 71 61.4378 71 50.9444V19C71 8.50659 62.4934 0 52 0H19C8.50659 0 0 8.50659 0 19V50.9444C0 61.4378 8.50659 69.9444 19 69.9444H26.625V68.151Z" fill="#141414"/>
<path d="M26.625 62.0891V68.151V69.9444H44.375V68.151V58.3229C44.375 54.9871 43.2035 52.7991 41.9255 51.6871C49.842 50.7904 58.149 47.7774 58.149 34.0755C58.149 30.094 56.8 26.9017 54.4925 24.355C54.8475 23.4583 56.09 19.7279 54.1375 14.8856C54.1375 14.8856 51.1555 13.9171 44.375 18.5442C41.5705 17.7551 38.5175 17.3606 35.5 17.3606C32.4825 17.3606 29.4295 17.7551 26.625 18.5442C19.8445 13.9171 16.8625 14.8856 16.8625 14.8856C14.91 19.7279 16.1525 23.4583 16.5075 24.355C14.2 26.9017 12.851 30.094 12.851 34.0755C12.851 47.7416 21.1225 50.8263 29.0035 51.723C28.0095 52.6197 27.0865 54.198 26.767 56.5295C24.7435 57.3903 19.525 59.0044 16.4365 53.5523C16.4365 53.5523 14.555 50.1089 11.005 49.8578C11.005 49.8578 7.526 49.7861 10.7565 52.01C10.7565 52.01 13.064 53.1219 14.697 57.2827C14.697 57.2827 16.7915 64.2413 26.625 62.0891Z" fill="#ECA5B2"/>
<path d="M27.125 62.0891V61.4679L26.5181 61.6007C21.7354 62.6474 18.9159 61.4701 17.2948 60.1099C16.4738 59.4211 15.9406 58.669 15.6131 58.0902C15.4496 57.8011 15.3382 57.5567 15.2687 57.3874C15.2339 57.3028 15.2097 57.2372 15.1946 57.1944C15.1871 57.173 15.1819 57.1573 15.1788 57.1479L15.1758 57.1386L15.1757 57.1384L15.1756 57.138L15.1755 57.1376L15.1754 57.1373L15.1699 57.119L15.1624 57.1C14.3215 54.9573 13.2996 53.5823 12.4717 52.7363C12.0584 52.3139 11.695 52.0251 11.4293 51.8391C11.2964 51.7461 11.1881 51.6789 11.1101 51.6336C11.0712 51.611 11.0398 51.5938 11.0168 51.5816C11.0158 51.5811 11.0148 51.5805 11.0138 51.58C10.2375 51.0423 9.96502 50.707 9.89555 50.5468C9.90063 50.5437 9.90642 50.5402 9.91299 50.5365C10.051 50.4595 10.2972 50.4058 10.5624 50.3788C10.6851 50.3663 10.7956 50.361 10.8752 50.3589C10.9148 50.3578 10.9463 50.3576 10.9671 50.3576L10.9844 50.3576C12.5921 50.4759 13.8397 51.3147 14.7028 52.157C15.1337 52.5777 15.4607 52.9916 15.6793 53.2997C15.7884 53.4534 15.8698 53.5799 15.9232 53.6664C15.9498 53.7096 15.9694 53.7428 15.9819 53.7643L15.9952 53.7875L15.9977 53.7921L15.9978 53.7922L15.9979 53.7924L15.998 53.7926L15.9981 53.7928L16.0015 53.7988C17.6302 56.6739 19.8568 57.7222 21.9575 57.9063C24.0222 58.0873 25.9231 57.4318 26.9627 56.9895L27.2238 56.8785L27.2624 56.5973C27.5685 54.3631 28.4457 52.8996 29.3384 52.0943L30.1617 51.3516L29.06 51.2262C25.1498 50.7813 21.2335 49.8006 18.2954 47.3066C15.3807 44.8324 13.351 40.8001 13.351 34.0755C13.351 30.2194 14.653 27.1464 16.878 24.6907L17.0869 24.4602L16.9724 24.171C16.6503 23.3574 15.4821 19.882 17.227 15.3249C17.2901 15.3174 17.3671 15.3104 17.4583 15.306C17.7989 15.2897 18.3408 15.3092 19.0978 15.469C20.6126 15.7887 22.9934 16.6713 26.3432 18.9572L26.5359 19.0887L26.7604 19.0256C29.5173 18.2498 32.5244 17.8606 35.5 17.8606C38.4756 17.8606 41.4827 18.2498 44.2396 19.0256L44.4641 19.0887L44.6568 18.9572C48.0066 16.6713 50.3874 15.7887 51.9022 15.469C52.6592 15.3092 53.2011 15.2897 53.5417 15.306C53.6329 15.3104 53.7099 15.3174 53.773 15.3249C55.5179 19.8819 54.3497 23.3574 54.0276 24.171L53.9131 24.4602L54.122 24.6907C56.347 27.1464 57.649 30.2194 57.649 34.0755C57.649 40.8178 55.6107 44.84 52.6842 47.3006C49.7332 49.7817 45.7994 50.7451 41.8692 51.1903L40.7398 51.3183L41.5973 52.0644C42.7461 53.0638 43.875 55.1028 43.875 58.3229V68.151V69.4444H27.125V68.151V62.0891ZM14.2255 57.4498L14.2278 57.4573C14.2333 57.474 14.241 57.4972 14.2512 57.5262C14.2717 57.5843 14.302 57.6661 14.3437 57.7676C14.4271 57.9704 14.5562 58.2529 14.7427 58.5825C15.1153 59.2412 15.7202 60.0942 16.6521 60.876C18.4599 62.3928 21.4274 63.5827 26.125 62.701V68.151V69.4444H19C8.78273 69.4444 0.5 61.1617 0.5 50.9444V19C0.5 8.78273 8.78273 0.5 19 0.5H52C62.2173 0.5 70.5 8.78273 70.5 19V50.9444C70.5 61.1617 62.2173 69.4444 52 69.4444H44.875V68.151V58.3229C44.875 55.4792 44.0509 53.392 42.9736 52.0603C46.652 51.557 50.409 50.5199 53.3277 48.066C56.5338 45.3704 58.649 41.0352 58.649 34.0755C58.649 30.0863 57.3318 26.8474 55.0659 24.2476C55.5254 22.9381 56.4551 19.2964 54.6012 14.6986L54.5139 14.4822L54.2919 14.4101L54.1375 14.8856C54.2919 14.4101 54.2915 14.4099 54.2909 14.4097L54.2899 14.4094L54.2875 14.4087L54.282 14.4069L54.2676 14.4026C54.2625 14.4012 54.2567 14.3995 54.2502 14.3978C54.2428 14.3957 54.2345 14.3936 54.2254 14.3912C54.1912 14.3826 54.145 14.372 54.0866 14.3613C53.9698 14.3398 53.8046 14.3175 53.5896 14.3072C53.1591 14.2865 52.5317 14.3141 51.6957 14.4905C50.0558 14.8367 47.6176 15.7547 44.2857 18.0007C41.4959 17.2397 38.4793 16.8606 35.5 16.8606C32.5207 16.8606 29.5041 17.2397 26.7143 18.0007C23.3824 15.7547 20.9442 14.8367 19.3043 14.4905C18.4683 14.3141 17.8409 14.2865 17.4104 14.3072C17.1954 14.3175 17.0302 14.3398 16.9134 14.3613C16.855 14.372 16.8088 14.3826 16.7746 14.3912C16.7576 14.3956 16.7435 14.3994 16.7324 14.4026L16.718 14.4069L16.7125 14.4087L16.7101 14.4094L16.7091 14.4097C16.7085 14.4099 16.7081 14.4101 16.8625 14.8856L16.7081 14.4101L16.4861 14.4822L16.3988 14.6986C14.5449 19.2964 15.4746 22.9381 15.9341 24.2476C13.6682 26.8474 12.351 30.0863 12.351 34.0755C12.351 41.0169 14.4571 45.3601 17.6483 48.0689C20.5589 50.5396 24.3068 51.5928 27.9762 52.098C27.2218 53.0607 26.5984 54.4156 26.3143 56.1753C25.3042 56.5785 23.7176 57.0568 22.0448 56.9102C20.2582 56.7535 18.3313 55.8828 16.8715 53.3059L16.8668 53.2974L16.8471 53.2629C16.8303 53.2339 16.806 53.1928 16.7743 53.1414C16.7109 53.0386 16.6176 52.894 16.4948 52.721C16.2497 52.3756 15.8844 51.9131 15.4012 51.4414C14.4387 50.5019 12.9755 49.4959 11.0403 49.3591L11.0278 49.3582L11.0153 49.3579L11.005 49.8578C11.0153 49.3579 11.0151 49.3579 11.015 49.3579L11.0145 49.3579L11.0135 49.3579L11.0103 49.3578L11.0004 49.3577L10.9664 49.3576C10.9378 49.3576 10.8976 49.358 10.8484 49.3593C10.7505 49.3619 10.6144 49.3684 10.4613 49.3839C10.1752 49.413 9.75356 49.4803 9.42563 49.6633C9.25635 49.7578 9.0642 49.9095 8.95811 50.1497C8.84505 50.4057 8.86622 50.6778 8.97126 50.9286C9.16047 51.3805 9.66149 51.8632 10.473 52.4218L10.5047 52.4437L10.5369 52.4592L10.5377 52.4596L10.5378 52.4596L10.5385 52.4599L10.539 52.4602L10.5488 52.4654C10.5604 52.4715 10.5802 52.4823 10.6076 52.4981C10.6622 52.5299 10.7469 52.5821 10.8559 52.6584C11.0738 52.8109 11.3894 53.06 11.757 53.4357C12.4892 54.184 13.4347 55.4408 14.2255 57.4498Z" stroke="#141414"/>
</svg>
