<svg width="70" height="70" viewBox="0 0 70 70" fill="none" xmlns="http://www.w3.org/2000/svg">
<path fill-rule="evenodd" clip-rule="evenodd" d="M19 70C8.50659 70 0 61.4934 0 51V19C0 8.50659 8.50659 0 19 0H51C61.4934 0 70 8.50659 70 19V51C70 61.4934 61.4934 70 51 70H19ZM47.285 48.965C48.44 42.77 50.715 29.33 51.24 23.8C51.275 23.31 51.205 22.68 51.24 22.47C51.205 22.19 51.1 21.805 50.75 21.525C50.33 21.175 49.665 21.105 49.385 21.105C48.055 21.105 46.06 21.805 36.33 25.865C32.935 27.265 26.145 30.205 15.925 34.65C14.28 35.315 13.405 35.945 13.335 36.575C13.195 37.8 14.91 38.185 17.115 38.885C18.9 39.48 21.28 40.145 22.54 40.18C23.66 40.215 24.92 39.725 26.32 38.78C35.875 32.34 40.775 29.085 41.09 29.015C41.335 28.98 41.615 28.91 41.825 29.085C41.9032 29.1678 41.9601 29.2685 41.9906 29.3783C42.0211 29.4881 42.0243 29.6037 42 29.715C41.825 30.45 32.865 38.605 32.34 39.13C30.345 41.16 28.105 42.42 31.57 44.695C34.545 46.655 36.295 47.915 39.375 49.945C41.335 51.24 42.875 52.745 44.905 52.57C45.815 52.465 46.795 51.59 47.285 48.965Z" fill="#141414"/>
<path d="M51.24 23.8C50.715 29.33 48.44 42.77 47.285 48.965C46.795 51.59 45.815 52.465 44.905 52.57C42.875 52.745 41.335 51.24 39.375 49.945C36.295 47.915 34.545 46.655 31.57 44.695C28.105 42.42 30.345 41.16 32.34 39.13C32.865 38.605 41.825 30.45 42 29.715C42.0243 29.6037 42.0211 29.4881 41.9906 29.3783C41.9601 29.2685 41.9032 29.1678 41.825 29.085C41.615 28.91 41.335 28.98 41.09 29.015C40.775 29.085 35.875 32.34 26.32 38.78C24.92 39.725 23.66 40.215 22.54 40.18C21.28 40.145 18.9 39.48 17.115 38.885C14.91 38.185 13.195 37.8 13.335 36.575C13.405 35.945 14.28 35.315 15.925 34.65C26.145 30.205 32.935 27.265 36.33 25.865C46.06 21.805 48.055 21.105 49.385 21.105C49.665 21.105 50.33 21.175 50.75 21.525C51.1 21.805 51.205 22.19 51.24 22.47C51.205 22.68 51.275 23.31 51.24 23.8Z" fill="#ECA5B2"/>
<path d="M51.7379 23.8473L51.7378 23.8473C51.2104 29.4026 48.9312 42.8635 47.7765 49.0566L47.7765 49.0567C47.2762 51.737 46.2175 52.9219 44.9623 53.0667L44.9551 53.0675L44.9479 53.0682C43.7882 53.1681 42.7896 52.7826 41.8615 52.2405C41.3991 51.9703 40.9439 51.6551 40.4912 51.3339C40.4 51.2692 40.3091 51.2044 40.218 51.1395C39.852 50.8786 39.4848 50.6169 39.0998 50.3625C37.5563 49.3452 36.3461 48.5208 35.1516 47.707L35.132 47.6936C33.9445 46.8845 32.7711 46.0851 31.2956 45.113L51.7379 23.8473ZM51.7379 23.8473L51.7387 23.8356M51.7379 23.8473L51.7387 23.8356M51.7387 23.8356C51.7584 23.5597 51.7483 23.2533 51.7397 23.0122L51.7383 22.9738C51.7344 22.8646 51.731 22.7712 51.7301 22.6918C51.7296 22.6482 51.7299 22.6137 51.731 22.587C51.732 22.5619 51.7333 22.5516 51.7333 22.5516L51.7452 22.4803L51.7361 22.408C51.694 22.0705 51.5595 21.5345 51.0662 21.1377M51.7387 23.8356L31.9834 38.7795M31.9834 38.7795L31.9864 38.7764C32.098 38.6649 32.577 38.2209 33.2649 37.5833C34.2308 36.688 35.6085 35.4111 36.9581 34.1376C38.1209 33.0403 39.2692 31.9399 40.1364 31.0695C40.5707 30.6335 40.9296 30.2602 41.1832 29.9761C41.3106 29.8333 41.4056 29.7197 41.4688 29.6356C41.4899 29.6076 41.5053 29.5857 41.5161 29.5694C41.5164 29.5501 41.514 29.5308 41.5088 29.5121C41.5049 29.4981 41.4995 29.4846 41.4928 29.4719C41.4868 29.4715 41.4795 29.4713 41.4706 29.4713C41.4398 29.4713 41.4007 29.4745 41.3464 29.482C41.3377 29.4831 41.3289 29.4844 41.3199 29.4857C41.3012 29.4885 41.2817 29.4915 41.2605 29.4948C41.2491 29.4966 41.237 29.4985 41.2245 29.5004C41.2203 29.5026 41.2156 29.505 41.2103 29.5078C41.1654 29.5314 41.1001 29.5684 41.0116 29.6207C40.8358 29.7249 40.5865 29.8796 40.2615 30.0865C39.6124 30.4996 38.6748 31.1123 37.446 31.9257C34.9891 33.5519 31.3769 35.9747 26.5994 39.1946C25.1632 40.164 23.7976 40.7193 22.5252 40.6798C21.837 40.6605 20.8823 40.4735 19.9026 40.2274C18.9132 39.979 17.8609 39.6606 16.9603 39.3605C16.746 39.2925 16.5328 39.2265 16.323 39.1615C15.4893 38.9035 14.7089 38.6619 14.1255 38.3758C13.7539 38.1936 13.4083 37.9693 13.1661 37.6668C12.9094 37.346 12.7879 36.9601 12.8382 36.5188M31.9834 38.7795C31.7407 39.0265 31.4931 39.2629 31.2476 39.4962M31.9834 38.7795L31.2476 39.4962M12.8382 36.5188C12.8382 36.5186 12.8382 36.5184 12.8382 36.5182L13.335 36.575L12.8381 36.5198C12.8381 36.5195 12.8381 36.5191 12.8382 36.5188ZM12.8382 36.5188C12.897 35.9928 13.2748 35.5682 13.7426 35.2232C14.2238 34.8684 14.8962 34.5269 15.7314 34.1889M15.7314 34.1889C15.7295 34.1898 15.7275 34.1906 15.7256 34.1915L15.925 34.65L15.7376 34.1864C15.7356 34.1873 15.7335 34.1881 15.7314 34.1889ZM15.7314 34.1889C25.9446 29.7469 32.7378 26.8055 36.1381 25.4033M36.1381 25.4033C36.1385 25.4031 36.139 25.4029 36.1394 25.4028L36.33 25.865L36.1375 25.4036C36.1377 25.4035 36.1379 25.4034 36.1381 25.4033ZM36.1381 25.4033C41.0006 23.3744 43.9427 22.1797 45.837 21.4925C47.7226 20.8084 48.6254 20.605 49.385 20.605C49.5591 20.605 49.8353 20.626 50.1323 20.6977C50.4238 20.7681 50.7753 20.8967 51.0662 21.1377M51.0662 21.1377C51.0649 21.1366 51.0636 21.1356 51.0623 21.1346L50.75 21.525L51.0701 21.1409C51.0688 21.1398 51.0675 21.1387 51.0662 21.1377ZM31.2476 39.4962L31.1888 39.552M31.2476 39.4962L31.1888 39.552M31.1888 39.552C30.9652 39.7644 30.7425 39.9759 30.5361 40.1836M31.1888 39.552L30.5361 40.1836M30.5361 40.1836C30.0952 40.6273 29.6781 41.1016 29.45 41.6189M30.5361 40.1836L29.45 41.6189M29.45 41.6189C29.2067 42.1705 29.1814 42.7654 29.5051 43.3832M29.45 41.6189L29.5051 43.3832M29.5051 43.3832C29.8096 43.9646 30.4029 44.5268 31.2949 45.1125L29.5051 43.3832ZM39.6506 49.5278L39.6502 49.5275C38.1137 48.5148 36.9089 47.6942 35.7147 46.8805L35.6934 46.8661C34.5063 46.0572 33.3273 45.254 31.8451 44.2775L31.8444 44.277C31.0043 43.7254 30.5784 43.2772 30.3909 42.9191C30.2223 42.5974 30.232 42.3239 30.365 42.0224C30.5131 41.6865 30.8135 41.3231 31.2454 40.8885C31.4411 40.6916 31.6534 40.4899 31.8796 40.2751L31.9364 40.2211C32.1812 39.9885 32.4395 39.7421 32.695 39.4821C32.8022 39.3752 33.2529 38.9576 33.9072 38.3513C34.8636 37.4652 36.2549 36.176 37.6444 34.8649C38.8091 33.7659 39.9664 32.657 40.8448 31.7752C41.2834 31.3351 41.6573 30.9466 41.9292 30.642C42.0646 30.4904 42.1805 30.353 42.2681 30.2366C42.3117 30.1786 42.3532 30.1193 42.3876 30.0616C42.4171 30.0123 42.4629 29.9294 42.4864 29.8308L42.4865 29.8308L42.4885 29.8217C42.5302 29.6308 42.5246 29.4327 42.4723 29.2445C42.4201 29.0563 42.3226 28.8837 42.1885 28.7417L42.168 28.72L42.1451 28.7009C41.9195 28.5129 41.6669 28.4713 41.4706 28.4713C41.3279 28.4713 41.1718 28.496 41.0743 28.5115C41.0529 28.5149 41.0343 28.5179 41.0193 28.52L41.0003 28.5227L40.9815 28.5269C40.8866 28.548 40.7909 28.5985 40.7463 28.6219L40.7441 28.6231C40.6779 28.658 40.5964 28.7045 40.502 28.7604C40.3123 28.8727 40.0524 29.0341 39.7245 29.2429C39.0676 29.661 38.124 30.2777 36.894 31.0918C34.4334 32.7206 30.8181 35.1453 26.0406 38.3654L26.0403 38.3656C24.6769 39.2858 23.5229 39.7105 22.5556 39.6802L22.5539 39.6802C21.9822 39.6643 21.1172 39.5014 20.1462 39.2576C19.1856 39.0163 18.1567 38.7052 17.2731 38.4107L17.2731 38.4106L17.2663 38.4084C17.0249 38.3318 16.7933 38.26 16.5721 38.1914C15.7504 37.9366 15.0722 37.7263 14.5658 37.478C14.2505 37.3233 14.0558 37.1779 13.9468 37.0418C13.8526 36.9242 13.8122 36.8027 13.8318 36.6318L13.8319 36.6302C13.8434 36.5267 13.938 36.3216 14.3361 36.028C14.72 35.745 15.3055 35.4397 16.1124 35.1136L16.1125 35.1137L16.1244 35.1085C26.3467 30.6625 33.1312 27.7249 36.5206 26.3272L36.5225 26.3264C41.3897 24.2955 44.3098 23.1103 46.178 22.4325C48.0549 21.7516 48.8146 21.605 49.385 21.605C49.4909 21.605 49.6873 21.619 49.8977 21.6698C50.1124 21.7216 50.3016 21.8022 50.4299 21.9091L50.4298 21.9092L50.4377 21.9154C50.6245 22.0649 50.703 22.2726 50.736 22.4771C50.7296 22.5545 50.7294 22.635 50.7302 22.7032C50.7312 22.796 50.7351 22.9028 50.7389 23.0094L50.7403 23.0478C50.7491 23.2946 50.7564 23.546 50.7417 23.7588C50.218 29.2673 47.9484 42.6788 46.7935 48.8734C46.3157 51.4328 45.4197 52.0036 44.8545 52.0725C43.9872 52.1452 43.203 51.866 42.366 51.377C41.9447 51.1309 41.5205 50.8381 41.0698 50.5183C40.9826 50.4564 40.8943 50.3935 40.8049 50.3298C40.4375 50.0678 40.0521 49.7931 39.6506 49.5278ZM41.5161 29.4755C41.516 29.4756 41.515 29.4753 41.5133 29.4745C41.5154 29.4751 41.5162 29.4754 41.5161 29.4755ZM0.5 51V19C0.5 8.78273 8.78273 0.5 19 0.5H51C61.2173 0.5 69.5 8.78273 69.5 19V51C69.5 61.2173 61.2173 69.5 51 69.5H19C8.78273 69.5 0.5 61.2173 0.5 51Z" stroke="#141414"/>
</svg>
