<svg width="70" height="70" viewBox="0 0 70 70" fill="none" xmlns="http://www.w3.org/2000/svg">
<path fill-rule="evenodd" clip-rule="evenodd" d="M51 70C61.4934 70 70 61.4934 70 51V19C70 8.50659 61.4934 0 51 0H19C8.50659 0 0 8.50658 0 19V29.8008V51C0 61.4934 8.50659 70 19 70H51ZM11.8101 21.2896H19.8021C20.0646 34.6485 25.9565 40.3071 30.6234 41.4738V21.2896H38.1487V32.8109C42.7572 32.3151 47.5991 27.0649 49.2325 21.2896H56.7578C55.5036 28.4066 50.2533 33.6568 46.5199 35.8152C50.2533 37.5653 56.2328 42.1447 58.5079 50.4284H50.2242C48.4449 44.8865 44.0114 40.5988 38.1487 40.0154V50.4284H37.2445C21.2896 50.4284 12.1893 39.4904 11.8101 21.2896Z" fill="#141414"/>
<path d="M19.8021 21.2896H11.8101C12.1893 39.4904 21.2896 50.4284 37.2445 50.4284H38.1487V40.0154C44.0114 40.5988 48.4449 44.8865 50.2242 50.4284H58.5079C56.2328 42.1447 50.2533 37.5653 46.5199 35.8152C50.2533 33.6568 55.5036 28.4066 56.7578 21.2896H49.2325C47.5991 27.0649 42.7572 32.3151 38.1487 32.8109V21.2896H30.6234V41.4738C25.9565 40.3071 20.0646 34.6485 19.8021 21.2896Z" fill="#ECA5B2"/>
<path d="M20.302 21.2798L20.2923 20.7896H19.8021H11.8101H11.2996L11.3102 21.3001C11.5013 30.4754 13.8918 37.8862 18.3076 43.0107C22.7335 48.1468 29.1445 50.9284 37.2445 50.9284H38.1487H38.6487V50.4284V40.5795C44.0059 41.3445 48.0744 45.3681 49.7481 50.5812L49.8596 50.9284H50.2242H58.5079H59.1637L58.99 50.2959C56.825 42.413 51.3762 37.813 47.545 35.7701C51.2852 33.3215 56.0487 28.1945 57.2502 21.3764L57.3536 20.7896H56.7578H49.2325H48.8543L48.7513 21.1536C47.9576 23.96 46.3809 26.6456 44.4437 28.6858C42.6665 30.5574 40.6246 31.8466 38.6487 32.2301V21.2896V20.7896H38.1487H30.6234H30.1234V21.2896V40.8071C25.8413 39.3747 20.5497 33.8836 20.302 21.2798ZM38.1982 39.5179L37.6487 39.4632V40.0154V49.9284H37.2445C29.3896 49.9284 23.273 47.241 19.0652 42.3579C14.9272 37.5558 12.5876 30.5748 12.323 21.7896H19.3144C19.7129 34.9398 25.6016 40.7338 30.5021 41.9589L31.1234 42.1142V41.4738V21.7896H37.6487V32.8109V33.3676L38.2022 33.3081C40.6662 33.043 43.1311 31.5203 45.1688 29.3744C47.1293 27.3098 48.7373 24.6249 49.6064 21.7896H56.1518C54.7528 28.4272 49.808 33.3367 46.2696 35.3824L45.4407 35.8616L46.3076 36.268C49.8495 37.9282 55.4925 42.2193 57.8425 49.9284H50.5849C48.6847 44.4013 44.1712 40.1122 38.1982 39.5179ZM69.5 19V51C69.5 61.2173 61.2173 69.5 51 69.5H19C8.78273 69.5 0.5 61.2173 0.5 51V29.8008V19C0.5 8.78273 8.78273 0.5 19 0.5H51C61.2173 0.5 69.5 8.78273 69.5 19Z" stroke="#141414"/>
</svg>
